<?xml version="1.0" encoding="utf-8"?>
<!-- Generator: Adobe Illustrator 28.1.0, SVG Export Plug-In . SVG Version: 6.00 Build 0)  -->
<svg version="1.1" id="Calque_1" xmlns="http://www.w3.org/2000/svg" xmlns:xlink="http://www.w3.org/1999/xlink" x="0px" y="0px"
	 viewBox="0 0 520 270" style="enable-background:new 0 0 520 270;" xml:space="preserve">
<style type="text/css">
	.st0{fill:#171E3A;}
	.st1{fill:#FF6341;}
</style>
<g>
	<g>
		<g>
			<path class="st0" d="M23.2,258c-0.3,0-0.4-0.1-0.4-0.3l10.6-42.8c0-0.2,0.2-0.2,0.4-0.2h12c0.2,0,0.4,0.1,0.4,0.2l10.6,42.8
				c0,0.2-0.1,0.3-0.4,0.3H46.2c-0.3,0-0.4-0.1-0.4-0.3l-1.5-7.9h-9.2l-1.5,7.9c0,0.2-0.1,0.3-0.4,0.3H23.2z M36.7,241.7h6.1
				L40,228.5h-0.6L36.7,241.7z"/>
			<path class="st0" d="M71.2,258c-0.2,0-0.4-0.1-0.4-0.3V215c0-0.2,0.1-0.3,0.4-0.3h10.6c0.2,0,0.4,0.1,0.4,0.3v34.8H95v8.3H71.2z"
				/>
			<path class="st0" d="M110,255.5L110,255.5c-2.4-2-3.8-5-3.8-8.2v-3.2c0-0.2,0.1-0.3,0.4-0.3h10.8c0.2,0,0.4,0.1,0.4,0.3v3
				c0,0.8,0.3,1.5,0.9,2l0,0c0.5,0.4,1.1,0.6,1.7,0.6h2.8c0.6,0,1.2-0.2,1.7-0.6l0,0c0.6-0.5,0.9-1.2,0.9-2v-4.2
				c0-0.8-0.3-1.5-0.9-2l0,0c-0.5-0.4-1.1-0.6-1.7-0.6h-5.8c-2.5,0-6-0.9-7.9-2.5l0,0c-2.4-2-3.8-5-3.8-8.2v-4.1
				c0-3.1,1.4-6.1,3.8-8.2l0.1-0.1c1.9-1.6,4.4-2.6,6.9-2.6h10.1c2.5,0,5,0.9,6.9,2.6l0.1,0.1c2.4,2,3.8,5,3.8,8.2v2.2
				c0,0.2-0.1,0.3-0.4,0.3h-11.1c-0.2,0-0.4-0.1-0.4-0.3v-1.8c0-0.9-0.4-1.7-1.1-2.2l-0.2-0.2c-0.4-0.3-1-0.5-1.5-0.5h-2.4
				c-0.6,0-1.2,0.2-1.7,0.6l0,0c-0.6,0.5-0.9,1.2-0.9,2v3c0,0.8,0.3,1.5,0.9,2l0,0c0.5,0.4,1.1,0.7,1.8,0.7h5.9c2.5,0,6,0.9,7.9,2.5
				l0,0c2.4,2,3.8,5,3.8,8.2v5.2c0,3.2-1.4,6.2-3.8,8.2l0,0c-1.9,1.6-4.4,2.5-6.9,2.5h-10.3C114.4,258,111.9,257.1,110,255.5z"/>
			<path class="st0" d="M149.1,258c-0.3,0-0.4-0.1-0.4-0.3l10.6-42.8c0-0.2,0.2-0.2,0.4-0.2h12c0.2,0,0.4,0.1,0.4,0.2l10.6,42.8
				c0,0.2-0.1,0.3-0.4,0.3H172c-0.3,0-0.4-0.1-0.4-0.3l-1.5-7.9h-9.2l-1.5,7.9c0,0.2-0.1,0.3-0.4,0.3H149.1z M162.5,241.7h6.1
				l-2.8-13.1h-0.6L162.5,241.7z"/>
			<path class="st0" d="M198.4,255.5L198.4,255.5c-2.4-2-3.8-5-3.8-8.2v-21.9c0-3.1,1.4-6.1,3.8-8.2l0.1-0.1
				c1.9-1.6,4.4-2.6,6.9-2.6h9.2c2.6,0,5,0.9,7,2.6l0,0c2.4,2,3.7,5,3.7,8.1v4.2c0,0.2-0.1,0.3-0.4,0.3h-11.5
				c-0.2,0-0.4-0.1-0.4-0.3v-4c0-0.8-0.3-1.5-0.9-2l0,0c-0.5-0.4-1.1-0.6-1.7-0.6h-1c-0.6,0-1.2,0.2-1.7,0.6l0,0
				c-0.6,0.5-0.9,1.2-0.9,2v21.5c0,0.8,0.3,1.5,0.9,2l0,0c0.5,0.4,1.1,0.6,1.7,0.6h1c0.6,0,1.2-0.2,1.7-0.6l0,0
				c0.6-0.5,0.9-1.2,0.9-2v-5.6c0-0.2,0.1-0.3,0.4-0.3h11.5c0.2,0,0.4,0.1,0.4,0.3v5.8c0,3.1-1.4,6.1-3.8,8.2l0,0
				c-1.9,1.6-4.4,2.6-6.9,2.6h-9.3C202.8,258,200.4,257.1,198.4,255.5z"/>
			<path class="st0" d="M237.7,258c-0.2,0-0.4-0.1-0.4-0.3V215c0-0.2,0.1-0.3,0.4-0.3h20c3.1,0,6,1.2,8.2,3.3h0
				c1.7,1.6,2.7,3.9,2.7,6.3v9.6c0,3.4-1.3,6.9-4,8.9c-0.7,0.5-1.7,0.8-1.7,0.8l7.2,14.1c0,0.2,0,0.4-0.3,0.4h-11.1
				c-0.1,0-0.3-0.1-0.4-0.2l-6.6-13.6h-2.1v13.6c0,0.2-0.1,0.3-0.4,0.3H237.7z M249.6,235.6h4.2c0.6,0,1.2-0.2,1.7-0.6v0
				c0.6-0.5,0.9-1.2,0.9-2v-7.3c0-0.8-0.3-1.5-0.9-2l0,0c-0.5-0.4-1.1-0.6-1.7-0.6h-4.2V235.6z"/>
			<path class="st0" d="M320.7,258c-0.3,0-0.4-0.1-0.4-0.3l10.6-42.8c0-0.2,0.2-0.2,0.4-0.2h12c0.2,0,0.4,0.1,0.4,0.2l10.6,42.8
				c0,0.2-0.1,0.3-0.4,0.3h-10.5c-0.3,0-0.4-0.1-0.4-0.3l-1.5-7.9h-9.2l-1.5,7.9c0,0.2-0.1,0.3-0.4,0.3H320.7z M334.1,241.7h6.1
				l-2.8-13.1h-0.6L334.1,241.7z"/>
			<path class="st0" d="M375.5,258c-0.3,0-0.5-0.1-0.5-0.3l-9.6-42.8c0-0.2,0.1-0.3,0.3-0.3H377c0.3,0,0.4,0.1,0.4,0.3l4.6,25.3h0.8
				l5.1-25.3c0-0.2,0.2-0.3,0.5-0.3h9.6c0.3,0,0.5,0.1,0.5,0.3l5.2,25.3h0.7l4.4-25.3c0-0.2,0.1-0.3,0.4-0.3h10.8
				c0.2,0,0.3,0.1,0.3,0.3l-9.2,42.8c0,0.2-0.2,0.3-0.5,0.3h-11.2c-0.3,0-0.5-0.1-0.5-0.3l-6.1-25.5h-0.7l-5,25.5
				c0,0.2-0.2,0.3-0.5,0.3H375.5z"/>
			<path class="st0" d="M433.3,258c-0.2,0-0.4-0.1-0.4-0.3V215c0-0.2,0.1-0.3,0.4-0.3h25.6c0.2,0,0.4,0.1,0.4,0.3v7.7
				c0,0.2-0.1,0.3-0.4,0.3h-14.7v9.2h11.7c0.2,0,0.4,0.1,0.4,0.3v7.6c0,0.2-0.1,0.3-0.4,0.3h-11.7v9.4h14.9v8.3H433.3z"/>
			<path class="st0" d="M471.9,258c-0.2,0-0.4-0.1-0.4-0.3V215c0-0.2,0.1-0.3,0.4-0.3h20.5c2.5,0,4.9,0.9,6.9,2.5l0.5,0.4
				c2,1.8,3.1,4.4,3.1,7.1v3.9c0,2.2-0.9,4.4-2.6,5.9l-1.8,1.6l1.8,1.6c1.6,1.5,2.6,3.6,2.6,5.8v4.6c0,2.6-1.1,5.1-3,6.9l-0.6,0.5
				c-1.9,1.6-4.3,2.5-6.8,2.5H471.9z M483.4,231.6h5.6c0.6,0,1.2-0.2,1.7-0.6l0,0c0.6-0.5,0.9-1.2,0.9-2v-3.4c0-0.8-0.3-1.5-0.9-2
				l0,0c-0.5-0.4-1.1-0.6-1.7-0.6h-5.6V231.6z M483.4,249.7h5.6c0.6,0,1.2-0.2,1.7-0.6l0,0c0.6-0.5,0.9-1.2,0.9-2v-4.7
				c0-0.8-0.3-1.5-0.9-2l0,0c-0.5-0.4-1.1-0.6-1.7-0.6h-5.6V249.7z"/>
			<path class="st0" d="M282.5,258c-0.2,0-0.4-0.1-0.4-0.3V215c0-0.2,0.1-0.3,0.4-0.3h25.6c0.2,0,0.4,0.1,0.4,0.3v7.7
				c0,0.2-0.1,0.3-0.4,0.3h-14.7v9.2h11.7c0.2,0,0.4,0.1,0.4,0.3v7.6c0,0.2-0.1,0.3-0.4,0.3h-11.7v9.4h14.9v8.3H282.5z"/>
		</g>
	</g>
	<path class="st0" d="M339.3,99.8c-1.6,0-3.1,0.1-4.6,0.3c0-0.1,0-0.2,0-0.3c0-12.8-4.6-24.4-12.2-33.5
		c-44.4,51.2-89.6,68.7-123.8,68.7c-23.5,0-37.2-3.1-49.7-7.6c-3.6,5.2-5.7,11.6-5.7,18.4c0,18,14.6,32.6,32.6,32.6h163.4
		c21.7,0,39.3-17.6,39.3-39.3S361.1,99.8,339.3,99.8z"/>
	<path class="st1" d="M286.2,92.8c18.2-11.9,30-22.7,35.1-27.9c-9.5-10.5-23.3-17.1-38.6-17.1c-18.6,0-35,9.8-44.2,24.6
		c-6.6-4-14.4-6.4-22.8-6.4c-24.2,0-43.8,19.6-43.8,43.8c0,1.2,0.1,2.4,0.2,3.6C224.3,120.2,262,108.7,286.2,92.8z"/>
	<path class="st1" d="M340.6,49.6c-2.3,3.7-5.4,6.8-9.2,9c-1.6,0.9-3,1.5-3.4,1v0c-0.5-0.5,0.4-2.3,1.6-4.2c2.3-3.7,5.4-6.8,9.2-9
		c1.6-0.9,3-1.5,3.4-1v0C342.7,45.9,341.8,47.7,340.6,49.6z"/>
	<path class="st1" d="M370.1,19.9c0.5,0,1-0.1,1.4-0.2c0.3-2.3,0.5-4.7,0.4-7.2c0,0-2.9-0.3-7.5,0.7c0,0.3-0.1,0.6-0.1,0.9
		C364.3,17.3,366.9,19.9,370.1,19.9z"/>
	<circle class="st1" cx="357.5" cy="27.9" r="4.1"/>
	<path class="st0" d="M371.2,21.3c-0.4,0.1-0.8,0.1-1.1,0.1c-4,0-7.3-3.3-7.3-7.3c0-0.2,0-0.3,0-0.5c-7.6,2.1-18.6,7.7-28.4,23.1
		c0,0-16.1-1.8-17.7,16.4c5.4-6.1,8-6.6,13.1-6.3c1.3,0.1,2.5,0.4,3.6,0.8c1.3-1.2,2.8-2.2,4.3-3c1.7-1,3-1.4,4-1.4
		c1,0,1.6,0.4,1.9,0.7c1.6,1.6,0.2,4.2-1.3,6.7c-0.8,1.3-1.7,2.5-2.6,3.6c0.5,1.5,0.8,3.1,0.8,4.8c0.1,5.1-1.9,9.5-6.2,11.7
		c0,0,19.2-2,15.5-19.2C349.8,51.5,367.5,40.1,371.2,21.3z M351.4,27.9c0-3.3,2.7-6.1,6.1-6.1c3.3,0,6.1,2.7,6.1,6.1
		c0,3.3-2.7,6.1-6.1,6.1C354.2,34,351.4,31.3,351.4,27.9z"/>
</g>
</svg>
